# xmcd CD database file
# 
# Track frame offsets:
# 	150
# 	14863
# 	29209
# 	40098
# 	52541
# 	63926
# 	78781
# 	92159
# 	112173
# 	125961
# 	140300
# 	151556
# 	165147
# 
# Disc length: 2457 seconds
# 
# Submitted via: Nero 6, 6, 0, 0
# 
# Revision: 0
# Processed by: cddbd v1.5.1PL0 Copyright (c) Steve Scherf et al.
#
DISCID=a009970d
DTITLE=Speed Limit - This Special World
DYEAR=1900
DGENRE=
TTITLE0=You're Gonna Love Me One Day
TTITLE1=If Looks Could Kill
TTITLE2=I Feel Fine
TTITLE3=This Special World
TTITLE4=Stay Out Of My Arms
TTITLE5=Me Neither
TTITLE6=Lord I Hope This Day Is Good
TTITLE7=Two Tear Drops
TTITLE8=Don't Come Cryin' To Me
TTITLE9=The Right Place
TTITLE10=If The Jukebox Took Tears
TTITLE11=Long Line Of Love
TTITLE12=Raincheck
EXTD=
EXTT0=
EXTT1=
EXTT2=
EXTT3=
EXTT4=
EXTT5=
EXTT6=
EXTT7=
EXTT8=
EXTT9=
EXTT10=
EXTT11=
EXTT12=
PLAYORDER=
